<svg width="36" height="36" viewBox="0 0 36 36" fill="none" xmlns="http://www.w3.org/2000/svg">
<path fill-rule="evenodd" clip-rule="evenodd" d="M15.5196 17.1983C16.13 16.8931 16.5114 16.5879 16.8166 16.2065C17.3506 15.5962 17.5795 14.757 17.5795 13.689C17.5795 12.6972 17.3506 11.7817 16.8166 11.0951C15.9011 9.95079 14.4516 9.34048 12.3155 9.26419H4V26.2766H11.7815C12.697 26.2766 13.4598 26.2004 14.2227 26.0478C14.9856 25.8952 15.5959 25.59 16.2062 25.2086C16.664 24.8272 17.1217 24.3694 17.4269 23.8354C17.9609 23.0725 18.1898 22.157 18.1898 21.089C18.1898 20.0972 17.9609 19.2581 17.5032 18.5715C17.0454 17.9611 16.4351 17.5034 15.5196 17.1983ZM7.50977 12.2391H11.2479C12.0871 12.2391 12.7737 12.3154 13.3077 12.468C13.918 12.6969 14.2232 13.2309 14.2232 14.0701C14.2232 14.7567 13.9943 15.2907 13.5366 15.5959C13.0789 15.901 12.4686 16.0536 11.7057 16.0536H7.50977V12.2391ZM11.7057 23.376C12.4686 23.376 13.0789 23.2997 13.4603 23.0708C14.1469 22.6894 14.5284 22.0028 14.6046 20.9347C14.6046 20.0192 14.2995 19.4089 13.5366 19.1038C13.0789 18.8749 12.5448 18.7986 11.782 18.7986H7.50977V23.376H11.7057Z" fill="white"/>
<path d="M21.9258 10.1028H29.3258V12.2389H21.9258V10.1028Z" fill="white"/>
<path fill-rule="evenodd" clip-rule="evenodd" d="M28.6412 13.9955C29.5567 14.3769 30.2433 14.9872 30.8536 15.8264C31.3877 16.5893 31.6928 17.4285 31.9217 18.4202C31.998 19.0305 31.998 19.8697 31.998 20.9377V20.9378H22.6907C22.767 22.2347 23.2247 23.0739 24.0639 23.6079C24.5979 23.913 25.2082 24.0656 25.8948 24.0656C26.6577 24.0656 27.268 23.8368 27.7258 23.4553C27.9546 23.3027 28.1835 22.9976 28.4124 22.6161H31.8454C31.7691 23.379 31.3877 24.1419 30.6248 24.9048C29.4804 26.1254 27.8784 26.7357 25.8186 26.7357C24.1402 26.7357 22.6144 26.278 21.3175 25.21C19.9443 24.2182 19.334 22.5398 19.334 20.1749C19.334 17.9625 19.9443 16.2841 21.0886 15.1398C22.3093 13.9955 23.7587 13.3852 25.666 13.3852C26.734 13.3852 27.7258 13.614 28.6412 13.9955ZM23.6811 16.8177C23.1471 17.3517 22.9182 17.962 22.7656 18.8012H28.5636C28.4873 17.962 28.1821 17.2754 27.6481 16.8177C27.1141 16.3599 26.4275 16.1311 25.6646 16.1311C24.8254 16.1311 24.1388 16.3599 23.6811 16.8177Z" fill="white"/>
</svg>
